<svg
   viewBox="0 0 16 16"
   fill="currentColor"
   version="1.1"
   width="16"
   height="16"
   xmlns="http://www.w3.org/2000/svg"
   xmlns:svg="http://www.w3.org/2000/svg">
  <path
     d="M 7.7119872,-0.0118197 C 7.1231327,0.0737843 6.5410227,0.0877923 5.9578752,0.2400647 4.1770443,0.7044037 2.5604182,1.7806845 1.4849157,3.2803178 -1.057535,6.8253776 -0.28294485,11.895233 3.259002,14.475298 c 0.6822411,0.497025 1.454756,0.896252 2.2602155,1.15125 1.1621446,0.368358 2.4052242,0.45941 3.6096522,0.295465 C 13.169916,15.37155 16.240001,11.596396 15.974887,7.5309653 15.75439,4.1482945 13.417131,1.2027251 10.140817,0.2826075 9.4043602,0.0758599 8.4772386,-0.1228461 7.7119872,-0.0118197 m 7.9274858,7.9811833 -4.790214,-0.033723 c 0,-1.1411326 -0.736198,-2.2573621 -1.8215582,-2.6420631 C 8.8046106,5.2144584 8.555839,5.1532383 8.3192596,5.1376739 8.1721757,5.1280758 7.9828083,5.1726938 7.8468789,5.1057668 7.6035549,4.9859206 7.3947321,4.7174341 7.2058836,4.5285856 6.8637254,4.1864274 6.4305152,3.8499762 6.1602129,3.4489325 5.999121,3.6100245 5.5822535,4.2263761 5.3506028,4.2263761 5.2351666,4.2263761 5.1202492,4.0621713 5.0470963,3.9887591 4.8053287,3.7467321 4.5799038,3.4896595 4.3383957,3.2465949 4.2660211,3.1734419 4.1204935,2.9389378 4.0006474,2.9752549 3.8037572,3.0343999 3.6317702,3.3402409 3.4945438,3.4826555 3.0473256,3.9472539 2.6177472,4.4284544 2.1775331,4.899538 2.0639127,5.0209406 1.718901,5.5156303 1.538613,5.4697152 1.4519709,5.4476656 1.3689606,5.3516849 1.3022929,5.2961717 1.1956766,5.2074544 1.0161667,5.1029133 0.96636055,4.9669839 0.87894035,4.7270322 1.2789463,4.2193721 1.3969766,4.022482 2.0665068,2.9054743 3.0107492,1.990545 4.136058,1.3376169 c 3.7575142,-2.1803181 8.876139,-0.6791283 10.751394,3.2921375 0.496505,1.0508589 0.752021,2.1797993 0.752021,3.3396092 M 8.9262726,8.3065931 v 0.033723 C 8.1659499,8.9089368 8.2440315,9.8762665 8.5841144,10.668237 c 0.4378795,1.019989 0.9673297,2.009369 1.4635756,3.00238 0.234764,0.469267 0.564211,0.977706 0.7004,1.484328 C 8.9732253,15.965334 6.7838279,15.766109 5.013114,15.087499 5.1301066,14.651954 5.4105259,14.209405 5.6123448,13.805508 6.1591752,12.711588 6.8414164,11.593024 7.228452,10.431917 7.4743701,9.6939032 7.5192476,8.7434349 6.7337623,8.3068525 l 0.6409954,-0.033723 z"
     id="path547"
     style="stroke-width:2.59407" />
</svg>
